<svg id="Layer_1" data-name="Layer 1" xmlns="http://www.w3.org/2000/svg" xmlns:xlink="http://www.w3.org/1999/xlink" viewBox="0 0 300 287.511">
  <defs>
    <style>
      .cls-1 {
        fill: url(#linear-gradient);
      }
    </style>
    <linearGradient id="linear-gradient" x1="120" y1="270" x2="420" y2="270" gradientUnits="userSpaceOnUse">
      <stop offset="0" stop-color="#9c07b6"/>
      <stop offset="1" stop-color="#6610f2"/>
    </linearGradient>
  </defs>
  <title>Untitled-4</title>
  <path class="cls-1" d="M419.9,203.237l-3.925-21.454a6.191,6.191,0,0,0-6.088-5.08h-.031a6.186,6.186,0,0,0-6.07,5.132l-35.31,203.433-179.954.006a15.052,15.052,0,0,1-11.246-5.017,19.234,19.234,0,0,1-4.8-14.013c1.319-11.45,9.6-19.765,19.669-19.765H342.321a6.184,6.184,0,0,0,6.1-5.157l35.159-207.853a6.195,6.195,0,0,0-6.1-7.225H227.418c-34.232,0-67.651,27.841-74.5,62.039L120.854,345.275c-2.885,18.381,1.591,35.66,12.605,48.664,10.815,12.768,26.673,19.8,44.655,19.8l2.866-.009c.056,0,.109,0,.171,0,9.577.009,192.738.022,194.648.022a14.28,14.28,0,0,0,14.062-11.939L419.927,205.28A6.093,6.093,0,0,0,419.9,203.237Z" transform="translate(-120 -126.244)"/>
</svg>
