<svg id="Layer_1" data-name="Layer 1" xmlns="http://www.w3.org/2000/svg" viewBox="0 0 190.934 27.369">
  <title>Untitled-4</title>
  <g>
    <path d="M212.533,793.936a8.092,8.092,0,0,1-1.907,2.636,8.311,8.311,0,0,1-2.848,1.679,10.813,10.813,0,0,1-3.656.589,9.941,9.941,0,0,1-2.927-.413,8.241,8.241,0,0,1-2.417-1.187,8.334,8.334,0,0,1-1.749-1.74,10.937,10.937,0,0,1-1.292-2.25,13.438,13.438,0,0,1-.782-2.707,17.193,17.193,0,0,1-.272-3.129v-3.445a16.982,16.982,0,0,1,.246-2.945,12.482,12.482,0,0,1,.738-2.592,9.727,9.727,0,0,1,1.477-2.6,9.5,9.5,0,0,1,2.074-1.934,8.621,8.621,0,0,1,2.276-1.028,9.507,9.507,0,0,1,2.663-.36,10.955,10.955,0,0,1,3.753.6,7.669,7.669,0,0,1,4.632,4.413,12.037,12.037,0,0,1,.844,3.6h-4.922a8.363,8.363,0,0,0-.343-2,3.965,3.965,0,0,0-.782-1.441,3.377,3.377,0,0,0-1.31-.853,5.4,5.4,0,0,0-1.872-.29,4.529,4.529,0,0,0-1.081.123,3.468,3.468,0,0,0-.923.369,3.643,3.643,0,0,0-1.221,1.2,6.888,6.888,0,0,0-.8,1.82,10.767,10.767,0,0,0-.334,1.784,19.673,19.673,0,0,0-.106,2.1v3.48a20.1,20.1,0,0,0,.167,2.733,9.314,9.314,0,0,0,.519,2.1,5.06,5.06,0,0,0,.589,1.09,3.457,3.457,0,0,0,.782.791,3.262,3.262,0,0,0,1.064.518,4.763,4.763,0,0,0,1.309.167,5.723,5.723,0,0,0,1.74-.246,3.315,3.315,0,0,0,1.319-.773,3.69,3.69,0,0,0,.861-1.354,6.7,6.7,0,0,0,.387-1.986h4.939A9.734,9.734,0,0,1,212.533,793.936Z" transform="translate(-194.683 -771.471)"/>
    <path d="M217.306,784.944a8.773,8.773,0,0,1,1.757-3.067,8.009,8.009,0,0,1,2.8-2.039,10.2,10.2,0,0,1,7.62,0,8.146,8.146,0,0,1,2.83,2.039,8.93,8.93,0,0,1,1.741,3.067,11.928,11.928,0,0,1,.6,3.841v.369a11.987,11.987,0,0,1-.6,3.859,8.93,8.93,0,0,1-1.741,3.067,7.881,7.881,0,0,1-2.812,2.03,9.386,9.386,0,0,1-3.8.73,9.493,9.493,0,0,1-3.823-.73,7.875,7.875,0,0,1-2.822-2.03,8.773,8.773,0,0,1-1.757-3.067,11.96,11.96,0,0,1-.6-3.859v-.369A11.9,11.9,0,0,1,217.306,784.944Zm4.517,6.452a5.6,5.6,0,0,0,.721,1.819,3.508,3.508,0,0,0,3.164,1.7,3.563,3.563,0,0,0,1.846-.457,3.691,3.691,0,0,0,1.265-1.248,5.815,5.815,0,0,0,.7-1.819,10.456,10.456,0,0,0,.229-2.242v-.369a10.147,10.147,0,0,0-.229-2.2,6.029,6.029,0,0,0-.7-1.828,3.674,3.674,0,0,0-1.265-1.248,3.636,3.636,0,0,0-1.881-.457,3.593,3.593,0,0,0-1.863.457,3.668,3.668,0,0,0-1.266,1.248,5.8,5.8,0,0,0-.721,1.828,10.211,10.211,0,0,0-.228,2.2v.369A10.521,10.521,0,0,0,221.823,791.4Z" transform="translate(-194.683 -771.471)"/>
    <path d="M238.971,784.865a9.16,9.16,0,0,1,1.467-3.076,6.749,6.749,0,0,1,2.347-1.986,6.851,6.851,0,0,1,3.155-.7,6.07,6.07,0,0,1,2.628.536,6.281,6.281,0,0,1,2.013,1.52v-9.685h4.9v27h-4.412l-.246-1.987a6.449,6.449,0,0,1-2.109,1.723,6.14,6.14,0,0,1-2.813.615,6.576,6.576,0,0,1-3.12-.729,6.854,6.854,0,0,1-2.329-2.013,9.3,9.3,0,0,1-1.477-3.05,13.836,13.836,0,0,1-.509-3.841v-.369A14.676,14.676,0,0,1,238.971,784.865Zm4.588,6.548a5.427,5.427,0,0,0,.659,1.784,3.428,3.428,0,0,0,1.178,1.213,3.313,3.313,0,0,0,1.757.44,3.773,3.773,0,0,0,2.1-.545,3.876,3.876,0,0,0,1.327-1.494v-7.7a3.811,3.811,0,0,0-1.318-1.5,3.742,3.742,0,0,0-2.075-.536,3.308,3.308,0,0,0-1.766.449,3.492,3.492,0,0,0-1.187,1.221,6.068,6.068,0,0,0-.668,1.837,11.372,11.372,0,0,0-.211,2.241v.369A11.51,11.51,0,0,0,243.559,791.413Z" transform="translate(-194.683 -771.471)"/>
    <path d="M265.821,798.1a9.38,9.38,0,0,1-3.076-1.969,8.455,8.455,0,0,1-1.977-2.909,9.315,9.315,0,0,1-.695-3.6v-.7a11.121,11.121,0,0,1,.686-3.982,9.22,9.22,0,0,1,1.916-3.1,8.648,8.648,0,0,1,2.918-2.022,9.262,9.262,0,0,1,3.674-.72,9.381,9.381,0,0,1,3.665.676,7.7,7.7,0,0,1,2.733,1.908,8.312,8.312,0,0,1,1.688,2.962,11.993,11.993,0,0,1,.58,3.823v2.074h-12.9v.053a6.739,6.739,0,0,0,.633,1.837,4.664,4.664,0,0,0,1.037,1.256,4.877,4.877,0,0,0,1.529.9,5.421,5.421,0,0,0,1.881.316,7.4,7.4,0,0,0,2.795-.545,5.151,5.151,0,0,0,2.2-1.634l2.443,2.636a8.279,8.279,0,0,1-2.953,2.391,10.067,10.067,0,0,1-4.781,1.072A10.626,10.626,0,0,1,265.821,798.1Zm1.9-14.757a3.462,3.462,0,0,0-1.2.835,4.709,4.709,0,0,0-.878,1.3,7.087,7.087,0,0,0-.528,1.688h8.016v-.387a3.818,3.818,0,0,0-.281-1.459,3.764,3.764,0,0,0-.774-1.2,3.588,3.588,0,0,0-1.2-.782,4.319,4.319,0,0,0-1.644-.29A3.829,3.829,0,0,0,267.72,783.345Z" transform="translate(-194.683 -771.471)"/>
    <path d="M303.579,772.877h8.6a15.938,15.938,0,0,1,3.805.422,8.51,8.51,0,0,1,2.927,1.283,5.831,5.831,0,0,1,1.872,2.18,6.873,6.873,0,0,1,.659,3.111,6.3,6.3,0,0,1-.413,2.189,5.1,5.1,0,0,1-1.169,1.8,5.966,5.966,0,0,1-.958.774,6.065,6.065,0,0,1-1.186.6v.018a6.258,6.258,0,0,1,2.013.9,5.484,5.484,0,0,1,1.256,1.266,5.7,5.7,0,0,1,.783,1.679,6.866,6.866,0,0,1,.255,1.872,7.856,7.856,0,0,1-.633,3.252,6.307,6.307,0,0,1-1.811,2.355A7.91,7.91,0,0,1,316.71,798a14,14,0,0,1-3.8.475h-9.334Zm8.631,10.74a7.433,7.433,0,0,0,1.986-.272,3.307,3.307,0,0,0,1.389-.765,2.711,2.711,0,0,0,.677-.984,3.462,3.462,0,0,0,.237-1.319,4.107,4.107,0,0,0-.2-1.353,2.408,2.408,0,0,0-.607-.967,3.054,3.054,0,0,0-1.415-.791,8.314,8.314,0,0,0-2.083-.264h-3.656v6.715Zm-3.674,10.863h4.395a5.644,5.644,0,0,0,1.731-.246,3.79,3.79,0,0,0,1.275-.668,3.076,3.076,0,0,0,.852-1.142,3.721,3.721,0,0,0,.29-1.494,5.039,5.039,0,0,0-.22-1.547,2.83,2.83,0,0,0-.694-1.16,3.093,3.093,0,0,0-1.23-.756,5.731,5.731,0,0,0-1.793-.281h-4.606Z" transform="translate(-194.683 -771.471)"/>
    <path d="M337.048,779.451V794.5h5.15v3.973h-15.5V794.5h5.414V783.441h-5.414v-3.99Zm-5.089-5.915a2.45,2.45,0,0,1,.571-.835,2.735,2.735,0,0,1,.888-.527,3.27,3.27,0,0,1,1.151-.194,2.87,2.87,0,0,1,2.066.73,2.675,2.675,0,0,1,0,3.744,2.87,2.87,0,0,1-2.066.73,3.27,3.27,0,0,1-1.151-.194,2.562,2.562,0,0,1-.888-.545,2.261,2.261,0,0,1-.571-.817,2.809,2.809,0,0,1,0-2.092Z" transform="translate(-194.683 -771.471)"/>
    <path d="M355.962,779.451h7.1v3.6h-7.1v8.174a5.422,5.422,0,0,0,.237,1.731,2.6,2.6,0,0,0,.677,1.1,2.475,2.475,0,0,0,1.063.6,5.161,5.161,0,0,0,1.4.176q.563,0,1.151-.053t1.134-.14q.528-.071.993-.159c.311-.058.577-.117.8-.175l.475,3.357a6.013,6.013,0,0,1-1.2.519,11.655,11.655,0,0,1-1.459.36q-.772.141-1.608.22t-1.644.079a9.178,9.178,0,0,1-2.838-.413,5.448,5.448,0,0,1-2.171-1.292,5.635,5.635,0,0,1-1.407-2.206,9.415,9.415,0,0,1-.492-3.226v-8.648h-4.342v-3.6h4.342v-4.658h4.887Z" transform="translate(-194.683 -771.471)"/>
    <path d="M380.668,792.477a1.969,1.969,0,0,0-.712-.633,7.185,7.185,0,0,0-1.389-.528q-.861-.246-2.179-.492a20.931,20.931,0,0,1-3.05-.835,9.433,9.433,0,0,1-2.364-1.221,5.4,5.4,0,0,1-1.538-1.635,4.109,4.109,0,0,1-.554-2.145,4.779,4.779,0,0,1,.562-2.25,5.7,5.7,0,0,1,1.618-1.881,8.237,8.237,0,0,1,2.566-1.283,11.378,11.378,0,0,1,3.41-.474,12.644,12.644,0,0,1,3.568.465,8.687,8.687,0,0,1,2.69,1.275,5.752,5.752,0,0,1,1.67,1.951,5.248,5.248,0,0,1,.58,2.443h-4.887a2.467,2.467,0,0,0-.158-.887,2.228,2.228,0,0,0-.475-.747,3.116,3.116,0,0,0-1.186-.7,5.461,5.461,0,0,0-1.8-.263,6.143,6.143,0,0,0-1.564.176,3.118,3.118,0,0,0-1.09.492,1.952,1.952,0,0,0-.589.659,1.67,1.67,0,0,0-.2.8,1.748,1.748,0,0,0,.176.782,1.616,1.616,0,0,0,.632.642,4.581,4.581,0,0,0,1.213.536,13.676,13.676,0,0,0,1.969.413,25.7,25.7,0,0,1,3.2.721,9.945,9.945,0,0,1,2.549,1.125,5.385,5.385,0,0,1,1.679,1.7,4.45,4.45,0,0,1,.606,2.364,4.622,4.622,0,0,1-.606,2.329,5.676,5.676,0,0,1-1.714,1.837,8.825,8.825,0,0,1-2.707,1.2,13.457,13.457,0,0,1-3.533.431,11.68,11.68,0,0,1-3.788-.563,8.7,8.7,0,0,1-2.751-1.476,6.146,6.146,0,0,1-1.679-2.048,5.157,5.157,0,0,1-.571-2.312h4.658a2.68,2.68,0,0,0,.422,1.328,2.8,2.8,0,0,0,.949.887,4.206,4.206,0,0,0,1.327.51,7.438,7.438,0,0,0,1.538.158,7.287,7.287,0,0,0,1.661-.167,3.953,3.953,0,0,0,1.169-.448,2,2,0,0,0,.659-.65,1.548,1.548,0,0,0,.22-.809A1.459,1.459,0,0,0,380.668,792.477Z" transform="translate(-194.683 -771.471)"/>
  </g>
</svg>
